<svg width="48" height="48" viewBox="0 0 48 48" fill="none" xmlns="http://www.w3.org/2000/svg">
<rect width="48" height="48" rx="8" fill="#64DF71" fill-opacity="0.5"/>
<path d="M21.22 19H16.78C16.3 18.47 16 17.77 16 17C16 15.34 17.34 14 19 14C20.66 14 22 15.34 22 17C22 17.77 21.7 18.47 21.22 19ZM28 14C30.21 14 32 15.79 32 18V34H30V18C30 16.9 29.1 16 28 16C26.9 16 26 16.9 26 18V30C26 32.21 24.21 34 22 34C19.79 34 18 32.21 18 30H17L16 20H22L21 30H20C20 31.1 20.9 32 22 32C23.1 32 24 31.1 24 30V18C24 15.79 25.79 14 28 14Z" fill="#35B44C"/>
</svg>
